<svg xmlns="http://www.w3.org/2000/svg" xmlns:xlink="http://www.w3.org/1999/xlink" width="500" zoomAndPan="magnify" viewBox="0 0 375 374.999991" height="500" preserveAspectRatio="xMidYMid meet" version="1.0"><defs><g/><clipPath id="cd59de2e75"><path d="M 0 118.367188 L 375 118.367188 L 375 256.632812 L 0 256.632812 Z M 0 118.367188 " clip-rule="nonzero"/></clipPath><clipPath id="77fe655a33"><path d="M 69.132812 118.367188 L 305.867188 118.367188 C 324.203125 118.367188 341.789062 125.652344 354.75 138.617188 C 367.714844 151.582031 375 169.164062 375 187.5 C 375 205.835938 367.714844 223.417969 354.75 236.382812 C 341.789062 249.347656 324.203125 256.632812 305.867188 256.632812 L 69.132812 256.632812 C 50.796875 256.632812 33.214844 249.347656 20.25 236.382812 C 7.285156 223.417969 0 205.835938 0 187.5 C 0 169.164062 7.285156 151.582031 20.25 138.617188 C 33.214844 125.652344 50.796875 118.367188 69.132812 118.367188 Z M 69.132812 118.367188 " clip-rule="nonzero"/></clipPath><clipPath id="7de0b75de7"><path d="M 183.570312 118.367188 L 190.289062 118.367188 L 190.289062 256.632812 L 183.570312 256.632812 Z M 183.570312 118.367188 " clip-rule="nonzero"/></clipPath><clipPath id="caba10e7ba"><path d="M 41.214844 131.25 L 153.714844 131.25 L 153.714844 243.75 L 41.214844 243.75 Z M 41.214844 131.25 " clip-rule="nonzero"/></clipPath><clipPath id="fe259f68a0"><path d="M 97.464844 131.25 C 66.398438 131.25 41.214844 156.433594 41.214844 187.5 C 41.214844 218.566406 66.398438 243.75 97.464844 243.75 C 128.53125 243.75 153.714844 218.566406 153.714844 187.5 C 153.714844 156.433594 128.53125 131.25 97.464844 131.25 Z M 97.464844 131.25 " clip-rule="nonzero"/></clipPath><clipPath id="c636003eca"><path d="M 62 141 L 133 141 L 133 234 L 62 234 Z M 62 141 " clip-rule="nonzero"/></clipPath><clipPath id="57ffb304e4"><path d="M 128.101562 140.214844 L 133.40625 144.109375 L 66.8125 234.808594 L 61.507812 230.910156 Z M 128.101562 140.214844 " clip-rule="nonzero"/></clipPath><clipPath id="85de8b5d13"><path d="M 130.753906 142.160156 C 132.21875 143.238281 132.535156 145.296875 131.457031 146.765625 L 68.773438 232.136719 C 67.699219 233.605469 65.636719 233.917969 64.171875 232.84375 C 62.707031 231.769531 62.390625 229.707031 63.46875 228.242188 L 126.152344 142.867188 C 127.226562 141.402344 129.289062 141.085938 130.753906 142.160156 Z M 130.753906 142.160156 " clip-rule="nonzero"/></clipPath></defs><g clip-path="url(#cd59de2e75)"><g clip-path="url(#77fe655a33)"><path fill="#027773" d="M 0 118.367188 L 374.824219 118.367188 L 374.824219 256.632812 L 0 256.632812 Z M 0 118.367188 " fill-opacity="1" fill-rule="nonzero"/></g></g><g clip-path="url(#7de0b75de7)"><path fill="#ffffff" d="M 183.570312 118.367188 L 190.289062 118.367188 L 190.289062 256.628906 L 183.570312 256.628906 Z M 183.570312 118.367188 " fill-opacity="1" fill-rule="nonzero"/></g><g clip-path="url(#caba10e7ba)"><g clip-path="url(#fe259f68a0)"><path fill="#ffffff" d="M 41.214844 131.25 L 153.714844 131.25 L 153.714844 243.75 L 41.214844 243.75 Z M 41.214844 131.25 " fill-opacity="1" fill-rule="nonzero"/></g></g><g clip-path="url(#c636003eca)"><g clip-path="url(#57ffb304e4)"><g clip-path="url(#85de8b5d13)"><path fill="#027773" d="M 128.101562 140.214844 L 133.40625 144.109375 L 66.828125 234.785156 L 61.523438 230.890625 Z M 128.101562 140.214844 " fill-opacity="1" fill-rule="nonzero"/></g></g></g><g fill="#ffffff" fill-opacity="1"><g transform="translate(204.392569, 209.249986)"><g><path d="M 10.75 0 L 6.046875 0 L 6.046875 -39.984375 L 10.75 -39.984375 Z M 10.75 0 "/></g></g></g><g fill="#ffffff" fill-opacity="1"><g transform="translate(221.206628, 209.249986)"><g><path d="M 20.34375 -39.984375 C 23.09375 -39.984375 25.453125 -39.488281 27.421875 -38.5 C 29.390625 -37.519531 30.890625 -36.113281 31.921875 -34.28125 C 32.953125 -32.445312 33.46875 -30.289062 33.46875 -27.8125 C 33.46875 -25.332031 32.953125 -23.179688 31.921875 -21.359375 C 30.890625 -19.535156 29.390625 -18.125 27.421875 -17.125 C 25.453125 -16.132812 23.09375 -15.640625 20.34375 -15.640625 L 10.75 -15.640625 L 10.75 0 L 6.046875 0 L 6.046875 -39.984375 Z M 20.203125 -19.65625 C 25.765625 -19.65625 28.546875 -22.375 28.546875 -27.8125 C 28.546875 -33.257812 25.765625 -35.984375 20.203125 -35.984375 L 10.75 -35.984375 L 10.75 -19.65625 Z M 20.203125 -19.65625 "/></g></g></g><g fill="#ffffff" fill-opacity="1"><g transform="translate(257.650759, 209.249986)"><g><path d="M 31.53125 -23.765625 L 31.53125 -39.984375 L 36.203125 -39.984375 L 36.203125 0 L 31.53125 0 L 31.53125 -19.765625 L 10.75 -19.765625 L 10.75 0 L 6.046875 0 L 6.046875 -39.984375 L 10.75 -39.984375 L 10.75 -23.765625 Z M 31.53125 -23.765625 "/></g></g></g><g fill="#ffffff" fill-opacity="1"><g transform="translate(299.918296, 209.249986)"><g><path d="M 35.984375 0 L 30.953125 0 L 27.265625 -10.96875 L 10.234375 -10.96875 L 6.515625 0 L 1.59375 0 L 15.53125 -39.984375 L 22.046875 -39.984375 Z M 18.40625 -35.140625 L 11.546875 -14.90625 L 25.921875 -14.90625 L 19.09375 -35.140625 Z M 18.40625 -35.140625 "/></g></g></g></svg>