<?xml version="1.0" standalone="no"?>
<!DOCTYPE svg PUBLIC "-//W3C//DTD SVG 20010904//EN"
 "http://www.w3.org/TR/2001/REC-SVG-20010904/DTD/svg10.dtd">
<svg version="1.0" xmlns="http://www.w3.org/2000/svg"
 width="494.000000pt" height="505.000000pt" viewBox="0 0 494.000000 505.000000"
 preserveAspectRatio="xMidYMid meet">

<g transform="translate(0.000000,505.000000) scale(0.100000,-0.100000)"
fill="#000000" stroke="none">
<path d="M2225 5028 c-554 -56 -1094 -321 -1495 -734 -395 -408 -635 -921
-700 -1499 -13 -117 -13 -415 0 -546 18 -177 82 -454 138 -601 l18 -47 599
341 c330 187 836 474 1125 638 289 164 755 428 1035 587 281 160 731 415 1000
568 270 152 494 281 498 285 13 12 -140 195 -269 320 -180 176 -319 279 -532
400 -410 230 -933 337 -1417 288z"/>
<path d="M4645 3375 c-98 -56 -1597 -907 -2620 -1487 -209 -119 -560 -318
-780 -443 -220 -125 -476 -270 -570 -323 -93 -53 -172 -97 -174 -98 -9 -8 163
-209 264 -309 613 -607 1474 -844 2305 -635 579 145 1098 515 1435 1020 285
428 427 899 428 1415 0 206 -11 322 -49 515 -33 165 -106 411 -123 409 -3 0
-55 -29 -116 -64z"/>
</g>
</svg>
