<?xml version="1.0" standalone="no"?>
<!DOCTYPE svg PUBLIC "-//W3C//DTD SVG 20010904//EN"
 "http://www.w3.org/TR/2001/REC-SVG-20010904/DTD/svg10.dtd">
<svg version="1.0" xmlns="http://www.w3.org/2000/svg"
 width="930.000000pt" height="924.000000pt" viewBox="0 0 930.000000 924.000000"
 preserveAspectRatio="xMidYMid meet">

<g transform="translate(0.000000,924.000000) scale(0.100000,-0.100000)"
fill="#000000" stroke="none">
<path d="M3130 4905 l0 -1215 310 0 310 0 0 1215 0 1215 -310 0 -310 0 0
-1215z"/>
<path d="M4360 4905 l0 -1215 310 0 310 0 0 420 0 420 238 0 c130 0 285 5 344
10 411 39 680 232 765 550 25 93 25 378 0 470 -86 318 -348 508 -761 549 -65
7 -333 11 -658 11 l-548 0 0 -1215z m1151 737 c76 -30 132 -81 166 -150 26
-52 28 -67 28 -167 0 -131 -17 -179 -90 -249 -82 -80 -122 -90 -397 -94 l-238
-4 0 347 0 347 238 -4 c216 -3 242 -6 293 -26z"/>
</g>
</svg>
